<?xml version="1.0" encoding="UTF-8"?>
<svg xmlns="http://www.w3.org/2000/svg" viewBox="0 0 300 360" role="img" aria-labelledby="title desc">
  <title id="title">Pure cleanser tube illustration</title>
  <desc id="desc">Elegant gold line art of a cleanser tube with a flip cap on a soft cream card.</desc>
  <defs>
    <linearGradient id="cardTint" x1="38" x2="262" y1="28" y2="332" gradientUnits="userSpaceOnUse">
      <stop offset="0" stop-color="#FDFAF7"/>
      <stop offset=".62" stop-color="#FDFAF7"/>
      <stop offset="1" stop-color="#F2D9DE" stop-opacity=".78"/>
    </linearGradient>
  </defs>
  <rect x="20" y="20" width="260" height="320" rx="30" fill="url(#cardTint)" stroke="#E8DDD5" stroke-width="1"/>
  <g fill="none" stroke-linecap="round" stroke-linejoin="round">
    <path stroke="#F5EFE0" stroke-width="1.1" d="M62 296h176"/>
    <path stroke="#BFA76F" stroke-width="1.35" d="M110 87c13-8 67-8 80 0l13 173c1 16-11 29-27 29h-52c-16 0-28-13-27-29L110 87z"/>
    <path stroke="#BFA76F" stroke-width="1.1" d="M111 113c20 9 58 9 78 0"/>
    <path stroke="#BFA76F" stroke-width="1.1" d="M104 249c14 8 78 8 92 0"/>
    <path stroke="#BFA76F" stroke-width="1.35" d="M114 289h72"/>
    <path stroke="#BFA76F" stroke-width="1.25" d="M119 289v16c0 6 5 11 11 11h40c6 0 11-5 11-11v-16"/>
    <path stroke="#BFA76F" stroke-width="1.1" d="M129 305h42"/>
    <path stroke="#C5778A" stroke-width=".9" opacity=".66" d="M131 201c10-16 28-16 38 0-10 15-28 15-38 0z"/>
    <path stroke="#BFA76F" stroke-width=".9" opacity=".72" d="M150 181v37"/>
    <path stroke="#BFA76F" stroke-width=".8" opacity=".55" d="M141 194c-8-5-11-13-8-24 10 5 14 13 9 23"/>
    <path stroke="#BFA76F" stroke-width=".8" opacity=".55" d="M159 194c8-5 11-13 8-24-10 5-14 13-9 23"/>
    <path stroke="#2C2C2C" stroke-width=".75" opacity=".56" d="M130 228h40"/>
    <path stroke="#BFA76F" stroke-width=".9" opacity=".42" d="M96 326c34 8 74 8 108 0"/>
  </g>
</svg>
