<?xml version="1.0" encoding="UTF-8"?>
<svg xmlns="http://www.w3.org/2000/svg" viewBox="0 0 300 360" role="img" aria-labelledby="title desc">
  <title id="title">Hydra Bomb sheet mask sachet illustration</title>
  <desc id="desc">Elegant gold line art of a flat sheet mask pouch on a soft cream card.</desc>
  <defs>
    <linearGradient id="cardTint" x1="38" x2="262" y1="28" y2="332" gradientUnits="userSpaceOnUse">
      <stop offset="0" stop-color="#FDFAF7"/>
      <stop offset=".62" stop-color="#FDFAF7"/>
      <stop offset="1" stop-color="#F2D9DE" stop-opacity=".78"/>
    </linearGradient>
  </defs>
  <rect x="20" y="20" width="260" height="320" rx="30" fill="url(#cardTint)" stroke="#E8DDD5" stroke-width="1"/>
  <g fill="none" stroke-linecap="round" stroke-linejoin="round">
    <path stroke="#F5EFE0" stroke-width="1.1" d="M60 296h180"/>
    <path stroke="#BFA76F" stroke-width="1.35" d="M91 81h118c8 0 15 7 15 15v176c0 8-7 15-15 15H91c-8 0-15-7-15-15V96c0-8 7-15 15-15z"/>
    <path stroke="#BFA76F" stroke-width=".9" opacity=".58" d="M92 94h116M92 274h116"/>
    <path stroke="#BFA76F" stroke-width=".8" opacity=".46" d="M88 109h9M88 125h9M88 141h9M88 157h9M88 173h9M88 189h9M88 205h9M88 221h9M88 237h9M88 253h9"/>
    <path stroke="#BFA76F" stroke-width=".8" opacity=".46" d="M203 109h9M203 125h9M203 141h9M203 157h9M203 173h9M203 189h9M203 205h9M203 221h9M203 237h9M203 253h9"/>
    <path stroke="#C5778A" stroke-width=".95" opacity=".68" d="M125 179c13-19 37-19 50 0-13 19-37 19-50 0z"/>
    <path stroke="#BFA76F" stroke-width=".9" opacity=".72" d="M150 147v60"/>
    <path stroke="#BFA76F" stroke-width=".82" opacity=".54" d="M139 171c-12-8-17-20-12-36 14 6 20 18 14 34"/>
    <path stroke="#BFA76F" stroke-width=".82" opacity=".54" d="M161 171c12-8 17-20 12-36-14 6-20 18-14 34"/>
    <path stroke="#BFA76F" stroke-width=".82" opacity=".54" d="M139 190c-12 8-17 20-12 36 14-6 20-18 14-34"/>
    <path stroke="#BFA76F" stroke-width=".82" opacity=".54" d="M161 190c12 8 17 20 12 36-14-6-20-18-14-34"/>
    <path stroke="#2C2C2C" stroke-width=".75" opacity=".55" d="M124 236h52"/>
    <path stroke="#BFA76F" stroke-width=".9" opacity=".42" d="M92 305c38 8 78 8 116 0"/>
  </g>
</svg>
